<svg xmlns="http://www.w3.org/2000/svg" aria-hidden="true" style="position:absolute;width:0;height:0;overflow:hidden"><defs><symbol id="icon-right-arrow" viewBox="0 0 32 32"><path stroke-linecap="round" stroke-linejoin="round" stroke-width="2.286" d="m11.5 7 9 9-9 9"/>
</symbol>
<symbol id="icon-left-arrow" viewBox="0 0 32 32"><path stroke-linecap="round" stroke-linejoin="round" stroke-width="2.286" d="m20.5 7-9 9 9 9"/></symbol>


<symbol id="icon-sun" viewBox="0 0 32 32"><path stroke-linecap="round" stroke-linejoin="round" stroke-width="2.327" d="M16.688 22.873c4.735 0 8.574-3.73 8.574-8.331s-3.839-8.331-8.574-8.331c-4.735 0-8.574 3.73-8.574 8.331s3.839 8.331 8.574 8.331z"/><path stroke-linecap="round" stroke-linejoin="round" stroke-width="2.909" d="m26.135 5.372.175-.17M7.069 23.896l.175-.17M16.69 1.563v-.105m0 26.182v-.105M3.324 14.549h-.108m26.947 0h-.108M7.245 5.372l-.175-.17m19.24 18.694-.175-.17"/></symbol>

<symbol id="icon-moon" viewBox="0 0 32 32"><path stroke-linecap="round" stroke-linejoin="round" stroke-width="2.133" d="M2.189 16.585c.515 7.14 6.772 12.948 14.261 13.267 5.283.222 10.008-2.163 12.843-5.92 1.174-1.539.544-2.565-1.417-2.218-.959.166-1.947.236-2.978.194-7.002-.277-12.729-5.947-12.757-12.643a11.998 11.998 0 0 1 1.074-5.06c.773-1.719-.157-2.537-1.947-1.802-5.67 2.315-9.55 7.847-9.078 14.182z"/></symbol>
<symbol id="icon-close" viewBox="0 0 32 32"><path stroke-linecap="round" stroke-linejoin="round" stroke-width="1.333" d="M23 23 9 9m14 0L9 23"/></symbol>


<symbol id="icon-for-button" viewBox="0 0 32 32"><path  d="M4.708 4.708c6.26-6.26 16.391-6.28 22.627-.043s6.217 16.367-.043 22.627c-6.26 6.26-16.391 6.28-22.627.043s-6.217-16.367.043-22.627z" style="fill:"/><path fill="none" stroke="#000" stroke-linecap="round" stroke-width="2.133" d="M25.203 6.354c5.118 5.47 5.099 14.358-.043 19.853" style="stroke:var(--color11, #000)"/></symbol>

<symbol id="icon-star" viewBox="0 0 35 32">
<path d="M26.861 30.551c-0.23 0.001-0.454-0.071-0.64-0.204l-8.769-6.357-8.769 6.357c-0.187 0.136-0.413 0.209-0.644 0.208s-0.457-0.075-0.643-0.213c-0.186-0.137-0.324-0.33-0.394-0.551s-0.067-0.458 0.007-0.677l3.42-10.13-8.864-6.078c-0.192-0.132-0.337-0.321-0.414-0.541s-0.081-0.458-0.012-0.681c0.069-0.222 0.206-0.417 0.393-0.556s0.413-0.213 0.646-0.214h10.935l3.3-10.156c0.071-0.219 0.21-0.41 0.396-0.546s0.411-0.209 0.642-0.209c0.23 0 0.455 0.073 0.641 0.209s0.325 0.327 0.396 0.546l3.3 10.159h10.935c0.233-0 0.46 0.074 0.648 0.213s0.326 0.333 0.395 0.555c0.069 0.223 0.065 0.461-0.012 0.681s-0.222 0.41-0.414 0.542l-8.867 6.075 3.418 10.127c0.055 0.164 0.071 0.339 0.045 0.51s-0.091 0.334-0.192 0.474c-0.101 0.141-0.234 0.255-0.387 0.335s-0.324 0.121-0.497 0.121z"></path>
</symbol>

<symbol id="icon-cross" viewBox="0 0 32 32">
<path stroke-linejoin="round" stroke-linecap="round" stroke-miterlimit="4" stroke-width="2.6667" d="M30 30l-28-28M30 2l-28 28"></path>
</symbol>


<symbol id="icon-search" viewBox="0 0 32 32">
<path d="M13.067 3.072c-1.822 0.263-3.454 0.908-4.87 1.851l0.043-0.027c-1.367 0.894-2.498 2.030-3.359 3.357l-0.027 0.044c-0.907 1.378-1.54 3.015-1.78 4.778l-0.007 0.061c-0.050 0.459-0.078 0.991-0.078 1.53s0.028 1.071 0.084 1.596l-0.006-0.065c0.408 2.977 1.879 5.552 4.010 7.377l0.016 0.013c1.649 1.399 3.712 2.357 5.982 2.67l0.061 0.007c0.459 0.050 0.991 0.079 1.53 0.079s1.071-0.029 1.595-0.085l-0.065 0.006c2.096-0.28 3.964-1.080 5.525-2.266l-0.029 0.021c0.141-0.115 0.299-0.227 0.464-0.328l0.019-0.011c0.019 0 1.235 1.197 2.702 2.659 2.392 2.384 2.691 2.666 2.894 2.715 0.355 0.085 0.63-0.010 0.95-0.331 0.322-0.32 0.416-0.595 0.331-0.95-0.050-0.203-0.331-0.502-2.715-2.894-0.889-0.881-1.755-1.761-2.611-2.652l-0.048-0.050c0-0.019 0.152-0.237 0.339-0.483 1.164-1.532 1.965-3.401 2.238-5.436l0.007-0.060c0.050-0.459 0.079-0.991 0.079-1.53s-0.029-1.071-0.085-1.595l0.006 0.065c-0.319-2.331-1.278-4.394-2.691-6.060l0.014 0.017c-1.839-2.147-4.413-3.617-7.329-4.019l-0.061-0.007c-0.779-0.099-2.362-0.098-3.13 0.005zM15.344 5.066c3.139 0.245 5.954 1.966 7.547 4.619 0.879 1.419 1.399 3.139 1.399 4.981 0 1.844-0.522 3.567-1.426 5.028l0.024-0.041c-0.411 0.686-0.693 1.040-1.363 1.725-0.801 0.847-1.759 1.536-2.828 2.022l-0.056 0.023c-4.765 2.205-10.482 0.075-12.706-4.733-1.504-3.251-1.085-7.010 1.107-9.89 0.529-0.653 1.106-1.229 1.737-1.741l0.022-0.017c1.409-1.082 3.154-1.796 5.055-1.968l0.038-0.003c0.762-0.059 0.738-0.059 1.451-0.005z"></path>
</symbol></defs></svg>